:version 1.10
:name ASF
:units
  mass 1
  length 1
  angle deg
:documentation
  ASF file generated by Kaydara
:root
  axis xyz
  order  tx ty tz rx ry rz
  position 0 0 0
  orientation 0 0 0
:bonedata
  begin
    id 1
    name lfemurDummy
    direction 0.61522 -0.761478 0.204097
    length 5.68318
    axis 0 -0 0 xyz
  end
  begin
    id 2
    name lfemur
    direction 0.34202 -0.939693 -5.84747e-008
    length 16.9147
    axis 0 -0 20 xyz
    dof rx ry rz
    limits( -inf , inf )
( -inf , inf )
( -inf , inf )

  end
  begin
    id 3
    name ltibia
    direction 0.34202 -0.939693 1.20839e-009
    length 18.0532
    axis 0 -0 20 xyz
    dof rz ry rx
    limits( -inf , inf )
( -inf , inf )
( -inf , inf )

  end
  begin
    id 4
    name lfoot
    direction 0.0841971 -0.23133 0.969225
    length 5.23822
    axis -90 7.62852e-016 20 xyz
    dof ry rx rz
    limits( -inf , inf )
( -inf , inf )
( -inf , inf )

  end
  begin
    id 5
    name ltoes
    direction 0 0 0
    length 0
    axis 0 0 0 xyz
    dof rz ry rx
    limits( -inf , inf )
( -inf , inf )
( -inf , inf )

  end
  begin
    id 6
    name rfemurDummy
    direction -0.625247 -0.75382 0.202044
    length 5.74091
    axis 0 -0 0 xyz
  end
  begin
    id 7
    name rfemur
    direction -0.34202 -0.939693 -1.47013e-008
    length 16.4922
    axis 0 -0 -20 xyz
    dof rx ry rz
    limits( -inf , inf )
( -inf , inf )
( -inf , inf )

  end
  begin
    id 8
    name rtibia
    direction -0.34202 -0.939693 -7.74345e-010
    length 18.2421
    axis 0 -0 -20 xyz
    dof rz ry rx
    limits( -inf , inf )
( -inf , inf )
( -inf , inf )

  end
  begin
    id 9
    name rfoot
    direction -0.124331 -0.341598 0.931586
    length 5.45787
    axis -90 -7.62852e-016 -20 xyz
    dof ry rx rz
    limits( -inf , inf )
( -inf , inf )
( -inf , inf )

  end
  begin
    id 10
    name rtoes
    direction 0 0 0
    length 0
    axis 0 0 0 xyz
    dof rz ry rx
    limits( -inf , inf )
( -inf , inf )
( -inf , inf )

  end
  begin
    id 11
    name lowerbackDummy
    direction 0 0 0
    length 0
    axis 0 -0 0 xyz
  end
  begin
    id 12
    name lowerback
    direction -0.0218484 0.994884 -0.0986304
    length 4.45607
    axis 0 -0 0 xyz
    dof rx ry rz
    limits( -inf , inf )
( -inf , inf )
( -inf , inf )

  end
  begin
    id 13
    name upperback
    direction -0.00973057 0.999717 -0.0217111
    length 4.47449
    axis 0 -0 0 xyz
    dof rx ry rz
    limits( -inf , inf )
( -inf , inf )
( -inf , inf )

  end
  begin
    id 14
    name thorax
    direction -0.000928171 0.999699 0.0245198
    length 4.50973
    axis 0 -0 0 xyz
    dof rx ry rz
    limits( -inf , inf )
( -inf , inf )
( -inf , inf )

  end
  begin
    id 15
    name rclavicle
    direction -0.9009 0.425937 -0.0834055
    length 7.28587
    axis 0 -0 0 xyz
    dof rx ry rz
    limits( -inf , inf )
( -inf , inf )
( -inf , inf )

  end
  begin
    id 16
    name rhumerus
    direction -1 -2.23604e-007 -1.42637e-007
    length 13.5704
    axis 180 30 90 xyz
    dof rx ry rz
    limits( -inf , inf )
( -inf , inf )
( -inf , inf )

  end
  begin
    id 17
    name rradius
    direction -1 5.68281e-008 -4.4952e-007
    length 8.06782
    axis 180 30 90 xyz
    dof rz ry rx
    limits( -inf , inf )
( -inf , inf )
( -inf , inf )

  end
  begin
    id 18
    name rwrist
    direction -1 1.51393e-007 1.38143e-007
    length 4.03391
    axis -90 -90 0 xyz
    dof rz rx ry
    limits( -inf , inf )
( -inf , inf )
( -inf , inf )

  end
  begin
    id 19
    name rthumb
    direction 0 0 0
    length 0
    axis 0 0 0 xyz
    dof ry rx rz
    limits( -inf , inf )
( -inf , inf )
( -inf , inf )

  end
  begin
    id 20
    name rhand
    direction -1 -3.34077e-007 -5.59631e-007
    length 1.29744
    axis -90 -90 0 xyz
    dof ry rx rz
    limits( -inf , inf )
( -inf , inf )
( -inf , inf )

  end
  begin
    id 21
    name rfingers
    direction 0 0 0
    length 0
    axis 0 0 0 xyz
    dof rz ry rx
    limits( -inf , inf )
( -inf , inf )
( -inf , inf )

  end
  begin
    id 22
    name lclavicle
    direction 0.940017 0.332249 -0.0773232
    length 8.29589
    axis 0 -0 0 xyz
    dof rx ry rz
    limits( -inf , inf )
( -inf , inf )
( -inf , inf )

  end
  begin
    id 23
    name lhumerus
    direction 1 7.41158e-008 -1.44768e-008
    length 12.0042
    axis 180 -30 -90 xyz
    dof rx ry rz
    limits( -inf , inf )
( -inf , inf )
( -inf , inf )

  end
  begin
    id 24
    name lradius
    direction 1 -1.32972e-007 3.10821e-007
    length 8.1902
    axis 180 -30 -90 xyz
    dof rz ry rx
    limits( -inf , inf )
( -inf , inf )
( -inf , inf )

  end
  begin
    id 25
    name lwrist
    direction 1 3.08957e-007 4.01394e-007
    length 4.09509
    axis -90 90 0 xyz
    dof rz rx ry
    limits( -inf , inf )
( -inf , inf )
( -inf , inf )

  end
  begin
    id 26
    name lthumb
    direction 0 0 0
    length 0
    axis 0 0 0 xyz
    dof ry rx rz
    limits( -inf , inf )
( -inf , inf )
( -inf , inf )

  end
  begin
    id 27
    name lhand
    direction 1 -1.64125e-007 -6.99514e-007
    length 1.37229
    axis -90 90 0 xyz
    dof ry rx rz
    limits( -inf , inf )
( -inf , inf )
( -inf , inf )

  end
  begin
    id 28
    name lfingers
    direction 0 0 0
    length 0
    axis 0 0 0 xyz
    dof rz ry rx
    limits( -inf , inf )
( -inf , inf )
( -inf , inf )

  end
  begin
    id 29
    name lowerneck
    direction -0.030798 0.998024 0.0547665
    length 3.93918
    axis 0 -0 0 xyz
    dof rx ry rz
    limits( -inf , inf )
( -inf , inf )
( -inf , inf )

  end
  begin
    id 30
    name upperneck
    direction 0.0531588 0.996611 -0.0627736
    length 3.95491
    axis 0 -0 0 xyz
    dof rx ry rz
    limits( -inf , inf )
( -inf , inf )
( -inf , inf )

  end
  begin
    id 31
    name head
    direction 0 0 0
    length 0
    axis 0 0 0 xyz
    dof rx ry rz
    limits( -inf , inf )
( -inf , inf )
( -inf , inf )

  end
:hierarchy
  begin
    root lfemurDummy rfemurDummy lowerbackDummy
    lfemurDummy lfemur
    lfemur ltibia
    ltibia lfoot
    lfoot ltoes
    rfemurDummy rfemur
    rfemur rtibia
    rtibia rfoot
    rfoot rtoes
    lowerbackDummy lowerback
    lowerback upperback
    upperback thorax
    thorax rclavicle lclavicle lowerneck
    rclavicle rhumerus
    rhumerus rradius
    rradius rwrist
    rwrist rthumb rhand
    rhand rfingers
    lclavicle lhumerus
    lhumerus lradius
    lradius lwrist
    lwrist lthumb lhand
    lhand lfingers
    lowerneck upperneck
    upperneck head
  end

:SAMPLES-PER-SECOND 30
:FULLY-SPECIFIED
:DEGREES
1
root  -0.02375711049 39.51400096 6.964755621 -166.7410278 -70.43599701 172.0209961
lowerback  18.8159008 5.383850098 -5.715650082
upperback  5.439770222 5.299190044 -2.893959999
thorax  -4.860859871 2.406939983 -1.05727005
lowerneck  -2.793410063 13.09440041 -0.08660239726
upperneck  6.338650227 17.82530022 -5.545629978
head  3.071540117 8.668040276 -1.078979969
lclavicle  0 -9.442270133e-015 7.951389973e-016
lhumerus  -13.00489998 -4.033259869 61.02890015
lradius  2.817855008e-031 -2.128035994e-031 142.9400024
lwrist  -7.062250077e-031 -1.765562519e-031 12.34879971
lhand  -1.496451383e-031 -27.76390076 20.11240005
lfingers  90 7.125020027 -90
lthumb  89.89689403 5.08795885 91.16245106
rclavicle  0 -9.442270133e-015 7.951389973e-016
rhumerus  -1.811429977 11.81540012 -69.59739685
rradius  -2.152007929e-031 2.799590312e-031 127.5490036
rwrist  7.062250077e-031 1.765562519e-031 -8.046850204
rhand  -7.920061211e-032 -33.2840004 9.303460121
rfingers  -90 -7.125020027 -90
rthumb  -92.93752616 -24.25625642 -97.11982154
rfemur  -25.1128006 14.78240013 -5.810329914
rtibia  -0 0 53.24409866
rfoot  -4.428599573e-032 -4.668570042 0.8103910089
rtoes  5.373923086 19.29304026 -105.8922705
lfemur  -33.43510056 -2.843790054 1.376099944
ltibia  -0 0 51.53649902
lfoot  -0 -0.8545429707 7.090340137
ltoes  -4.250644065 -19.5611806 -102.515957
2
root  -0.1332771121 39.23177644 6.959666605 -167.5789795 -71.20899963 173.25
lowerback  18.05960083 4.957029819 -5.113230228
upperback  5.359749794 4.96476984 -2.69501996
thorax  -4.510039806 2.258160114 -1.045179963
lowerneck  -2.862169981 13.11260033 -0.07876069844
upperneck  6.471020222 17.8451004 -5.363810062
head  3.110440016 8.678210258 -1.014330029
lclavicle  0 -9.442270133e-015 7.951389973e-016
lhumerus  -15.00640011 -4.842110157 63.68149948
lradius  2.790551548e-031 -2.163715807e-031 142.2109985
lwrist  -7.062250077e-031 -0 10.47280025
lhand  -1.496451383e-031 -27.76390076 20.11240005
lfingers  90 7.125020027 -90
lthumb  89.89689403 5.08795885 91.16245106
rclavicle  0 -9.442270133e-015 7.951389973e-016
rhumerus  -3.749000072 12.7894001 -70.11769867
rradius  -2.114783079e-031 2.827814804e-031 126.7910004
rwrist  7.062250077e-031 -3.531125038e-031 -7.026110172
rhand  -7.920061211e-032 -33.2840004 9.303460121
rfingers  -90 -7.125020027 -90
rthumb  -92.93752616 -24.25625642 -97.11982154
rfemur  -23.3118 15.65260029 -4.963079929
rtibia  -0 0 52.16809845
rfoot  -5.596255782e-032 -9.630840302 -0.8882470131
rtoes  5.373923086 19.29304026 -105.8922705
lfemur  -34.05519867 -3.093430042 2.132560015
ltibia  -0 0 51.17919922
lfoot  8.827858434e-032 0.1846390069 6.269899845
ltoes  -4.250644065 -19.5611806 -102.515957
3
root  -0.260286655 39.01555519 6.94251098 -168.8939819 -71.83300018 174.960022
lowerback  17.28580093 4.579740047 -4.37872982
upperback  5.198390007 4.696010113 -2.621010065
thorax  -4.217979908 2.143460035 -1.264490008
lowerneck  -3.018140078 13.09060001 0.07902509719
upperneck  6.627560139 17.80310059 -5.121459961
head  3.180210114 8.66135025 -0.94798702
lclavicle  0 -9.442270133e-015 7.951389973e-016
lhumerus  -17.0788002 -5.326630116 66.1427002
lradius  2.772441449e-031 -2.186872756e-031 141.7339935
lwrist  -7.062250077e-031 -1.765562519e-031 9.276650429
lhand  -1.496451383e-031 -27.76390076 20.11240005
lfingers  90 7.125020027 -90
lthumb  89.89689403 5.08795885 91.16245106
rclavicle  0 -9.442270133e-015 7.951389973e-016
rhumerus  -5.903820038 13.59619999 -70.99279785
rradius  -2.071752253e-031 2.859490626e-031 125.9240036
rwrist  7.062250077e-031 -0 -6.701869965
rhand  -7.920061211e-032 -33.2840004 9.303460121
rfingers  -90 -7.125020027 -90
rthumb  -92.93752616 -24.25625642 -97.11982154
rfemur  -22.05629921 16.48380089 -3.931540012
rtibia  -0 0 51.49269867
rfoot  -4.486251075e-032 -10.30350018 -4.569920063
rtoes  5.373923086 19.29304026 -105.8922705
lfemur  -34.38199997 -2.984019995 2.859369993
ltibia  -0 0 50.64160156
lfoot  4.415001864e-032 1.276440024 4.878419876
ltoes  -4.250644065 -19.5611806 -102.515957
4
root  -0.3895600011 38.73888752 6.915755535 -171.0250244 -72.22899628 177.2160034
lowerback  16.79159927 4.285779953 -3.560080051
upperback  5.034800053 4.508870125 -2.572730064
thorax  -4.070509911 2.065510035 -1.601050019
lowerneck  -3.241060019 13.10980034 0.2475520074
upperneck  6.828609943 17.81509972 -4.84744978
head  3.277209997 8.67043972 -0.86411798
lclavicle  0 -9.442270133e-015 7.951389973e-016
lhumerus  -19.38619995 -5.573870182 68.62129974
lradius  2.766400753e-031 -2.194509265e-031 141.576004
lwrist  -7.062250077e-031 -0 8.585590363
lhand  -1.496451383e-031 -27.76390076 20.11240005
lfingers  90 7.125020027 -90
lthumb  89.89689403 5.08795885 91.16245106
rclavicle  0 -9.442270133e-015 7.951389973e-016
rhumerus  -8.230719566 14.44750023 -71.99520111
rradius  -2.019105316e-031 2.896904859e-031 124.8759995
rwrist  1.412450015e-030 -1.765562519e-031 -6.212180138
rhand  -7.920061211e-032 -33.2840004 9.303460121
rfingers  -90 -7.125020027 -90
rthumb  -92.93752616 -24.25625642 -97.11982154
rfemur  -20.73800087 17.92020035 -2.883640051
rtibia  -0 0 51.02140045
rfoot  -0 -13.12819958 -7.291079998
rtoes  5.373923086 19.29304026 -105.8922705
lfemur  -34.2804985 -2.598819971 3.686680079
ltibia  -0 0 50.16749954
lfoot  4.416706044e-032 2.040189981 3.310110092
ltoes  -4.250644065 -19.5611806 -102.515957
5
root  -0.5163288961 38.43333327 6.903311211 -173.3720093 -72.4960022 179.5449829
lowerback  16.53910065 4.044239998 -2.866509914
upperback  4.810349941 4.353449821 -2.409009933
thorax  -4.136730194 2.002470016 -1.775969982
lowerneck  -3.242180109 13.19019985 0.3682909906
upperneck  6.919260025 17.91749954 -4.814690113
head  3.320830107 8.721599579 -0.862251997
lclavicle  0 -9.442270133e-015 7.951389973e-016
lhumerus  -21.98410034 -5.379330158 71.27269745
lradius  2.766706969e-031 -2.194123193e-031 141.5839996
lwrist  -7.062250077e-031 -0 8.250189781
lhand  -1.496451383e-031 -27.76390076 20.11240005
lfingers  90 7.125020027 -90
lthumb  89.89689403 5.08795885 91.16245106
rclavicle  0 -9.442270133e-015 7.951389973e-016
rhumerus  -10.75039959 15.59189987 -72.97460175
rradius  -1.950397251e-031 2.943602317e-031 123.5279999
rwrist  7.062250077e-031 -3.531125038e-031 -4.907869816
rhand  -7.920061211e-032 -33.2840004 9.303460121
rfingers  -90 -7.125020027 -90
rthumb  -92.93752616 -24.25625642 -97.11982154
rfemur  -19.59329987 19.27109909 -1.857059956
rtibia  -0 0 50.75059891
rfoot  -0 -16.74259949 -6.718430042
rtoes  5.373923086 19.29304026 -105.8922705
lfemur  -33.87530136 -1.936280012 4.37116003
ltibia  -0 0 49.82149887
lfoot  4.414178762e-032 -0.6366040111 2.98484993
ltoes  -4.250644065 -19.5611806 -102.515957
6
root  -0.6493555749 38.14755537 6.904266387 -173.9130249 -72.55899811 -179.9619751
lowerback  16.20249939 3.895910025 -2.894439936
upperback  4.582280159 4.194600105 -2.318520069
thorax  -4.209360123 1.935850024 -1.621219993
lowerneck  -3.149600029 13.31809998 0.5220199823
upperneck  6.876679897 18.09519958 -5.060200214
head  3.338979959 8.806509972 -0.9570159912
lclavicle  0 -9.442270133e-015 7.951389973e-016
lhumerus  -24.62249947 -4.602839947 73.73729706
lradius  2.772212551e-031 -2.187162914e-031 141.7279968
lwrist  -7.062250077e-031 -0 8.087490082
lhand  -1.496451383e-031 -27.76390076 20.11240005
lfingers  90 7.125020027 -90
lthumb  89.89689403 5.08795885 91.16245106
rclavicle  0 -9.442270133e-015 7.951389973e-016
rhumerus  -13.24230003 16.61540031 -74.11979675
rradius  -1.881652602e-031 2.988013976e-031 122.1999969
rwrist  1.059337512e-030 -1.765562519e-031 -4.461909771
rhand  -7.920061211e-032 -33.2840004 9.303460121
rfingers  -90 -7.125020027 -90
rthumb  -92.93752616 -24.25625642 -97.11982154
rfemur  -18.85440063 20.13290024 -1.595479965
rtibia  -0 0 50.57799911
rfoot  -0 -18.87639999 -6.642310143
rtoes  5.373923086 19.29304026 -105.8922705
lfemur  -33.33480072 -0.8989710212 4.138169765
ltibia  -0 0 49.81700134
lfoot  4.422849676e-032 -3.644269943 3.713759899
ltoes  -4.250644065 -19.5611806 -102.515957
7
root  -0.7854111082 37.91377751 6.947177977 -174.2280273 -72.56999969 -179.8779907
lowerback  16.19009972 3.718810081 -2.683799982
upperback  4.381030083 3.997189999 -2.437380075
thorax  -4.393750191 1.844259977 -1.832900047
lowerneck  -3.189739943 13.41810036 0.7505649924
upperneck  6.76293993 18.23089981 -5.283699989
head  3.361409903 8.873720169 -1.050430059
lclavicle  0 -9.442270133e-015 7.951389973e-016
lhumerus  -27.09869957 -3.543829918 75.52179718
lradius  2.782830227e-031 -2.173637496e-031 142.0070038
lwrist  -7.062250077e-031 1.765562519e-031 8.053239822
lhand  -1.496451383e-031 -27.76390076 20.11240005
lfingers  90 7.125020027 -90
lthumb  89.89689403 5.08795885 91.16245106
rclavicle  0 -9.442270133e-015 7.951389973e-016
rhumerus  -15.68239975 17.37339973 -75.53530121
rradius  -1.812320471e-031 3.030567364e-031 120.8799973
rwrist  1.412450015e-030 -1.765562519e-031 -4.730820179
rhand  -7.920061211e-032 -33.2840004 9.303460121
rfingers  -90 -7.125020027 -90
rthumb  -92.93752616 -24.25625642 -97.11982154
rfemur  -18.14500046 20.8132 -1.569200039
rtibia  -0 0 50.51539993
rfoot  -0 -19.73550034 -7.298339844
rtoes  5.373923086 19.29304026 -105.8922705
lfemur  -32.67399979 0.08450379968 3.622009993
ltibia  -0 0 50.15729904
lfoot  4.436225692e-032 -5.749820232 5.463479996
ltoes  -4.250644065 -19.5611806 -102.515957
